ISO-10303-21;
HEADER;
/* Generated by software containing ST-Developer
 * from STEP Tools, Inc. (www.steptools.com) 
 */

FILE_DESCRIPTION(
/* description */ (''),
/* implementation_level */ '2;1');

FILE_NAME(
/* name */ '',
/* time_stamp */ '2026-05-18T01:25:04+09:00',
/* author */ (''),
/* organization */ (''),
/* preprocessor_version */ 'ST-DEVELOPER v20.1',
/* originating_system */ 'Autodesk Translation Framework v15.8.0.0',
/* authorisation */ '');

FILE_SCHEMA (('AUTOMOTIVE_DESIGN { 1 0 10303 214 3 1 1 }'));
ENDSEC;

DATA;
#10=MECHANICAL_DESIGN_GEOMETRIC_PRESENTATION_REPRESENTATION('',(#13),#1071);
#11=SHAPE_REPRESENTATION_RELATIONSHIP('SRR','None',#1078,#12);
#12=ADVANCED_BREP_SHAPE_REPRESENTATION('',(#14),#1070);
#13=STYLED_ITEM('',(#1087),#14);
#14=MANIFOLD_SOLID_BREP('\X2\30DC30C730A3\X0\1',#629);
#15=CYLINDRICAL_SURFACE('',#659,3.);
#16=CYLINDRICAL_SURFACE('',#663,3.);
#17=CYLINDRICAL_SURFACE('',#667,3.);
#18=CYLINDRICAL_SURFACE('',#671,3.);
#19=CYLINDRICAL_SURFACE('',#675,5.);
#20=CYLINDRICAL_SURFACE('',#679,5.);
#21=CYLINDRICAL_SURFACE('',#683,5.);
#22=CYLINDRICAL_SURFACE('',#687,5.);
#23=CYLINDRICAL_SURFACE('',#691,1.6);
#24=CYLINDRICAL_SURFACE('',#693,1.6);
#25=CYLINDRICAL_SURFACE('',#695,1.59999999999999);
#26=CYLINDRICAL_SURFACE('',#697,1.6);
#27=CYLINDRICAL_SURFACE('',#699,1.6);
#28=CYLINDRICAL_SURFACE('',#701,1.6);
#29=CYLINDRICAL_SURFACE('',#703,1.6);
#30=CYLINDRICAL_SURFACE('',#705,1.6);
#31=FACE_BOUND('',#130,.T.);
#32=FACE_BOUND('',#131,.T.);
#33=FACE_BOUND('',#132,.T.);
#34=FACE_BOUND('',#133,.T.);
#35=FACE_BOUND('',#134,.T.);
#36=FACE_BOUND('',#135,.T.);
#37=FACE_BOUND('',#136,.T.);
#38=FACE_BOUND('',#137,.T.);
#39=FACE_BOUND('',#141,.T.);
#40=FACE_BOUND('',#144,.T.);
#41=FACE_BOUND('',#147,.T.);
#42=FACE_BOUND('',#150,.T.);
#43=FACE_BOUND('',#153,.T.);
#44=FACE_BOUND('',#156,.T.);
#45=FACE_BOUND('',#159,.T.);
#46=FACE_BOUND('',#162,.T.);
#47=FACE_BOUND('',#175,.T.);
#48=FACE_BOUND('',#176,.T.);
#49=FACE_BOUND('',#177,.T.);
#50=FACE_BOUND('',#178,.T.);
#51=FACE_BOUND('',#179,.T.);
#52=FACE_BOUND('',#180,.T.);
#53=FACE_BOUND('',#181,.T.);
#54=FACE_BOUND('',#182,.T.);
#55=CIRCLE('',#650,3.);
#56=CIRCLE('',#651,3.);
#57=CIRCLE('',#652,5.);
#58=CIRCLE('',#653,5.);
#59=CIRCLE('',#654,5.);
#60=CIRCLE('',#655,5.);
#61=CIRCLE('',#656,3.);
#62=CIRCLE('',#657,3.);
#63=CIRCLE('',#660,3.);
#64=CIRCLE('',#662,1.6);
#65=CIRCLE('',#664,3.);
#66=CIRCLE('',#666,1.6);
#67=CIRCLE('',#668,3.);
#68=CIRCLE('',#670,1.59999999999999);
#69=CIRCLE('',#672,3.);
#70=CIRCLE('',#674,1.6);
#71=CIRCLE('',#676,5.);
#72=CIRCLE('',#678,1.6);
#73=CIRCLE('',#680,5.);
#74=CIRCLE('',#682,1.6);
#75=CIRCLE('',#684,5.);
#76=CIRCLE('',#686,1.6);
#77=CIRCLE('',#688,5.);
#78=CIRCLE('',#690,1.6);
#79=CIRCLE('',#692,1.6);
#80=CIRCLE('',#694,1.6);
#81=CIRCLE('',#696,1.59999999999999);
#82=CIRCLE('',#698,1.6);
#83=CIRCLE('',#700,1.6);
#84=CIRCLE('',#702,1.6);
#85=CIRCLE('',#704,1.6);
#86=CIRCLE('',#706,1.6);
#87=FACE_OUTER_BOUND('',#123,.T.);
#88=FACE_OUTER_BOUND('',#124,.T.);
#89=FACE_OUTER_BOUND('',#125,.T.);
#90=FACE_OUTER_BOUND('',#126,.T.);
#91=FACE_OUTER_BOUND('',#127,.T.);
#92=FACE_OUTER_BOUND('',#128,.T.);
#93=FACE_OUTER_BOUND('',#129,.T.);
#94=FACE_OUTER_BOUND('',#138,.T.);
#95=FACE_OUTER_BOUND('',#139,.T.);
#96=FACE_OUTER_BOUND('',#140,.T.);
#97=FACE_OUTER_BOUND('',#142,.T.);
#98=FACE_OUTER_BOUND('',#143,.T.);
#99=FACE_OUTER_BOUND('',#145,.T.);
#100=FACE_OUTER_BOUND('',#146,.T.);
#101=FACE_OUTER_BOUND('',#148,.T.);
#102=FACE_OUTER_BOUND('',#149,.T.);
#103=FACE_OUTER_BOUND('',#151,.T.);
#104=FACE_OUTER_BOUND('',#152,.T.);
#105=FACE_OUTER_BOUND('',#154,.T.);
#106=FACE_OUTER_BOUND('',#155,.T.);
#107=FACE_OUTER_BOUND('',#157,.T.);
#108=FACE_OUTER_BOUND('',#158,.T.);
#109=FACE_OUTER_BOUND('',#160,.T.);
#110=FACE_OUTER_BOUND('',#161,.T.);
#111=FACE_OUTER_BOUND('',#163,.T.);
#112=FACE_OUTER_BOUND('',#164,.T.);
#113=FACE_OUTER_BOUND('',#165,.T.);
#114=FACE_OUTER_BOUND('',#166,.T.);
#115=FACE_OUTER_BOUND('',#167,.T.);
#116=FACE_OUTER_BOUND('',#168,.T.);
#117=FACE_OUTER_BOUND('',#169,.T.);
#118=FACE_OUTER_BOUND('',#170,.T.);
#119=FACE_OUTER_BOUND('',#171,.T.);
#120=FACE_OUTER_BOUND('',#172,.T.);
#121=FACE_OUTER_BOUND('',#173,.T.);
#122=FACE_OUTER_BOUND('',#174,.T.);
#123=EDGE_LOOP('',(#413,#414,#415,#416));
#124=EDGE_LOOP('',(#417,#418,#419,#420));
#125=EDGE_LOOP('',(#421,#422,#423,#424));
#126=EDGE_LOOP('',(#425,#426,#427,#428));
#127=EDGE_LOOP('',(#429,#430,#431,#432,#433,#434));
#128=EDGE_LOOP('',(#435,#436,#437,#438));
#129=EDGE_LOOP('',(#439,#440,#441,#442));
#130=EDGE_LOOP('',(#443));
#131=EDGE_LOOP('',(#444));
#132=EDGE_LOOP('',(#445));
#133=EDGE_LOOP('',(#446));
#134=EDGE_LOOP('',(#447));
#135=EDGE_LOOP('',(#448));
#136=EDGE_LOOP('',(#449));
#137=EDGE_LOOP('',(#450));
#138=EDGE_LOOP('',(#451,#452,#453,#454,#455,#456,#457,#458,#459,#460,#461));
#139=EDGE_LOOP('',(#462,#463,#464,#465));
#140=EDGE_LOOP('',(#466));
#141=EDGE_LOOP('',(#467));
#142=EDGE_LOOP('',(#468,#469,#470,#471));
#143=EDGE_LOOP('',(#472));
#144=EDGE_LOOP('',(#473));
#145=EDGE_LOOP('',(#474,#475,#476,#477));
#146=EDGE_LOOP('',(#478));
#147=EDGE_LOOP('',(#479));
#148=EDGE_LOOP('',(#480,#481,#482,#483));
#149=EDGE_LOOP('',(#484));
#150=EDGE_LOOP('',(#485));
#151=EDGE_LOOP('',(#486,#487,#488,#489));
#152=EDGE_LOOP('',(#490));
#153=EDGE_LOOP('',(#491));
#154=EDGE_LOOP('',(#492,#493,#494,#495));
#155=EDGE_LOOP('',(#496));
#156=EDGE_LOOP('',(#497));
#157=EDGE_LOOP('',(#498,#499,#500,#501));
#158=EDGE_LOOP('',(#502));
#159=EDGE_LOOP('',(#503));
#160=EDGE_LOOP('',(#504,#505,#506,#507));
#161=EDGE_LOOP('',(#508));
#162=EDGE_LOOP('',(#509));
#163=EDGE_LOOP('',(#510,#511,#512,#513));
#164=EDGE_LOOP('',(#514,#515,#516,#517));
#165=EDGE_LOOP('',(#518,#519,#520,#521));
#166=EDGE_LOOP('',(#522,#523,#524,#525));
#167=EDGE_LOOP('',(#526,#527,#528,#529));
#168=EDGE_LOOP('',(#530,#531,#532,#533));
#169=EDGE_LOOP('',(#534,#535,#536,#537));
#170=EDGE_LOOP('',(#538,#539,#540,#541));
#171=EDGE_LOOP('',(#542,#543,#544,#545));
#172=EDGE_LOOP('',(#546,#547,#548,#549));
#173=EDGE_LOOP('',(#550,#551,#552,#553,#554,#555,#556,#557,#558,#559,#560));
#174=EDGE_LOOP('',(#561,#562,#563,#564));
#175=EDGE_LOOP('',(#565));
#176=EDGE_LOOP('',(#566));
#177=EDGE_LOOP('',(#567));
#178=EDGE_LOOP('',(#568));
#179=EDGE_LOOP('',(#569));
#180=EDGE_LOOP('',(#570));
#181=EDGE_LOOP('',(#571));
#182=EDGE_LOOP('',(#572));
#183=LINE('',#901,#231);
#184=LINE('',#903,#232);
#185=LINE('',#905,#233);
#186=LINE('',#906,#234);
#187=LINE('',#909,#235);
#188=LINE('',#911,#236);
#189=LINE('',#912,#237);
#190=LINE('',#916,#238);
#191=LINE('',#918,#239);
#192=LINE('',#920,#240);
#193=LINE('',#921,#241);
#194=LINE('',#924,#242);
#195=LINE('',#926,#243);
#196=LINE('',#927,#244);
#197=LINE('',#931,#245);
#198=LINE('',#933,#246);
#199=LINE('',#935,#247);
#200=LINE('',#936,#248);
#201=LINE('',#937,#249);
#202=LINE('',#939,#250);
#203=LINE('',#940,#251);
#204=LINE('',#943,#252);
#205=LINE('',#945,#253);
#206=LINE('',#946,#254);
#207=LINE('',#965,#255);
#208=LINE('',#967,#256);
#209=LINE('',#968,#257);
#210=LINE('',#972,#258);
#211=LINE('',#979,#259);
#212=LINE('',#986,#260);
#213=LINE('',#993,#261);
#214=LINE('',#1000,#262);
#215=LINE('',#1007,#263);
#216=LINE('',#1014,#264);
#217=LINE('',#1021,#265);
#218=LINE('',#1027,#266);
#219=LINE('',#1031,#267);
#220=LINE('',#1035,#268);
#221=LINE('',#1039,#269);
#222=LINE('',#1043,#270);
#223=LINE('',#1047,#271);
#224=LINE('',#1051,#272);
#225=LINE('',#1055,#273);
#226=LINE('',#1059,#274);
#227=LINE('',#1060,#275);
#228=LINE('',#1063,#276);
#229=LINE('',#1064,#277);
#230=LINE('',#1066,#278);
#231=VECTOR('',#715,10.);
#232=VECTOR('',#716,10.);
#233=VECTOR('',#717,10.);
#234=VECTOR('',#718,10.);
#235=VECTOR('',#721,10.);
#236=VECTOR('',#722,10.);
#237=VECTOR('',#723,10.);
#238=VECTOR('',#726,10.);
#239=VECTOR('',#727,10.);
#240=VECTOR('',#728,10.);
#241=VECTOR('',#729,10.);
#242=VECTOR('',#732,10.);
#243=VECTOR('',#733,10.);
#244=VECTOR('',#734,10.);
#245=VECTOR('',#737,10.);
#246=VECTOR('',#738,10.);
#247=VECTOR('',#739,10.);
#248=VECTOR('',#740,10.);
#249=VECTOR('',#741,10.);
#250=VECTOR('',#744,10.);
#251=VECTOR('',#745,10.);
#252=VECTOR('',#748,10.);
#253=VECTOR('',#749,10.);
#254=VECTOR('',#750,10.);
#255=VECTOR('',#769,10.);
#256=VECTOR('',#770,10.);
#257=VECTOR('',#771,10.);
#258=VECTOR('',#776,3.);
#259=VECTOR('',#785,3.);
#260=VECTOR('',#794,3.);
#261=VECTOR('',#803,3.);
#262=VECTOR('',#812,5.);
#263=VECTOR('',#821,5.);
#264=VECTOR('',#830,5.);
#265=VECTOR('',#839,5.);
#266=VECTOR('',#846,1.6);
#267=VECTOR('',#851,1.6);
#268=VECTOR('',#856,1.59999999999999);
#269=VECTOR('',#861,1.6);
#270=VECTOR('',#866,1.6);
#271=VECTOR('',#871,1.6);
#272=VECTOR('',#876,1.6);
#273=VECTOR('',#881,1.6);
#274=VECTOR('',#886,10.);
#275=VECTOR('',#887,10.);
#276=VECTOR('',#890,10.);
#277=VECTOR('',#891,10.);
#278=VECTOR('',#894,10.);
#279=VERTEX_POINT('',#899);
#280=VERTEX_POINT('',#900);
#281=VERTEX_POINT('',#902);
#282=VERTEX_POINT('',#904);
#283=VERTEX_POINT('',#908);
#284=VERTEX_POINT('',#910);
#285=VERTEX_POINT('',#914);
#286=VERTEX_POINT('',#915);
#287=VERTEX_POINT('',#917);
#288=VERTEX_POINT('',#919);
#289=VERTEX_POINT('',#923);
#290=VERTEX_POINT('',#925);
#291=VERTEX_POINT('',#929);
#292=VERTEX_POINT('',#930);
#293=VERTEX_POINT('',#932);
#294=VERTEX_POINT('',#934);
#295=VERTEX_POINT('',#942);
#296=VERTEX_POINT('',#944);
#297=VERTEX_POINT('',#947);
#298=VERTEX_POINT('',#949);
#299=VERTEX_POINT('',#951);
#300=VERTEX_POINT('',#953);
#301=VERTEX_POINT('',#955);
#302=VERTEX_POINT('',#957);
#303=VERTEX_POINT('',#959);
#304=VERTEX_POINT('',#961);
#305=VERTEX_POINT('',#964);
#306=VERTEX_POINT('',#966);
#307=VERTEX_POINT('',#970);
#308=VERTEX_POINT('',#974);
#309=VERTEX_POINT('',#977);
#310=VERTEX_POINT('',#981);
#311=VERTEX_POINT('',#984);
#312=VERTEX_POINT('',#988);
#313=VERTEX_POINT('',#991);
#314=VERTEX_POINT('',#995);
#315=VERTEX_POINT('',#998);
#316=VERTEX_POINT('',#1002);
#317=VERTEX_POINT('',#1005);
#318=VERTEX_POINT('',#1009);
#319=VERTEX_POINT('',#1012);
#320=VERTEX_POINT('',#1016);
#321=VERTEX_POINT('',#1019);
#322=VERTEX_POINT('',#1023);
#323=VERTEX_POINT('',#1026);
#324=VERTEX_POINT('',#1030);
#325=VERTEX_POINT('',#1034);
#326=VERTEX_POINT('',#1038);
#327=VERTEX_POINT('',#1042);
#328=VERTEX_POINT('',#1046);
#329=VERTEX_POINT('',#1050);
#330=VERTEX_POINT('',#1054);
#331=VERTEX_POINT('',#1058);
#332=VERTEX_POINT('',#1062);
#333=EDGE_CURVE('',#279,#280,#183,.T.);
#334=EDGE_CURVE('',#279,#281,#184,.T.);
#335=EDGE_CURVE('',#282,#281,#185,.T.);
#336=EDGE_CURVE('',#280,#282,#186,.T.);
#337=EDGE_CURVE('',#281,#283,#187,.T.);
#338=EDGE_CURVE('',#283,#284,#188,.T.);
#339=EDGE_CURVE('',#284,#282,#189,.T.);
#340=EDGE_CURVE('',#285,#286,#190,.T.);
#341=EDGE_CURVE('',#286,#287,#191,.T.);
#342=EDGE_CURVE('',#287,#288,#192,.T.);
#343=EDGE_CURVE('',#288,#285,#193,.T.);
#344=EDGE_CURVE('',#289,#285,#194,.T.);
#345=EDGE_CURVE('',#289,#290,#195,.T.);
#346=EDGE_CURVE('',#286,#290,#196,.T.);
#347=EDGE_CURVE('',#291,#292,#197,.T.);
#348=EDGE_CURVE('',#291,#293,#198,.T.);
#349=EDGE_CURVE('',#294,#293,#199,.T.);
#350=EDGE_CURVE('',#294,#284,#200,.T.);
#351=EDGE_CURVE('',#292,#283,#201,.T.);
#352=EDGE_CURVE('',#290,#291,#202,.T.);
#353=EDGE_CURVE('',#293,#289,#203,.T.);
#354=EDGE_CURVE('',#280,#295,#204,.T.);
#355=EDGE_CURVE('',#295,#296,#205,.T.);
#356=EDGE_CURVE('',#296,#279,#206,.T.);
#357=EDGE_CURVE('',#297,#297,#55,.T.);
#358=EDGE_CURVE('',#298,#298,#56,.T.);
#359=EDGE_CURVE('',#299,#299,#57,.T.);
#360=EDGE_CURVE('',#300,#300,#58,.T.);
#361=EDGE_CURVE('',#301,#301,#59,.T.);
#362=EDGE_CURVE('',#302,#302,#60,.T.);
#363=EDGE_CURVE('',#303,#303,#61,.T.);
#364=EDGE_CURVE('',#304,#304,#62,.T.);
#365=EDGE_CURVE('',#305,#296,#207,.T.);
#366=EDGE_CURVE('',#305,#306,#208,.T.);
#367=EDGE_CURVE('',#306,#287,#209,.T.);
#368=EDGE_CURVE('',#307,#307,#63,.T.);
#369=EDGE_CURVE('',#307,#304,#210,.T.);
#370=EDGE_CURVE('',#308,#308,#64,.T.);
#371=EDGE_CURVE('',#309,#309,#65,.T.);
#372=EDGE_CURVE('',#309,#297,#211,.T.);
#373=EDGE_CURVE('',#310,#310,#66,.T.);
#374=EDGE_CURVE('',#311,#311,#67,.T.);
#375=EDGE_CURVE('',#311,#303,#212,.T.);
#376=EDGE_CURVE('',#312,#312,#68,.T.);
#377=EDGE_CURVE('',#313,#313,#69,.T.);
#378=EDGE_CURVE('',#313,#298,#213,.T.);
#379=EDGE_CURVE('',#314,#314,#70,.T.);
#380=EDGE_CURVE('',#315,#315,#71,.T.);
#381=EDGE_CURVE('',#315,#302,#214,.T.);
#382=EDGE_CURVE('',#316,#316,#72,.T.);
#383=EDGE_CURVE('',#317,#317,#73,.T.);
#384=EDGE_CURVE('',#317,#299,#215,.T.);
#385=EDGE_CURVE('',#318,#318,#74,.T.);
#386=EDGE_CURVE('',#319,#319,#75,.T.);
#387=EDGE_CURVE('',#319,#301,#216,.T.);
#388=EDGE_CURVE('',#320,#320,#76,.T.);
#389=EDGE_CURVE('',#321,#321,#77,.T.);
#390=EDGE_CURVE('',#321,#300,#217,.T.);
#391=EDGE_CURVE('',#322,#322,#78,.T.);
#392=EDGE_CURVE('',#308,#323,#218,.T.);
#393=EDGE_CURVE('',#323,#323,#79,.T.);
#394=EDGE_CURVE('',#318,#324,#219,.T.);
#395=EDGE_CURVE('',#324,#324,#80,.T.);
#396=EDGE_CURVE('',#312,#325,#220,.T.);
#397=EDGE_CURVE('',#325,#325,#81,.T.);
#398=EDGE_CURVE('',#314,#326,#221,.T.);
#399=EDGE_CURVE('',#326,#326,#82,.T.);
#400=EDGE_CURVE('',#310,#327,#222,.T.);
#401=EDGE_CURVE('',#327,#327,#83,.T.);
#402=EDGE_CURVE('',#322,#328,#223,.T.);
#403=EDGE_CURVE('',#328,#328,#84,.T.);
#404=EDGE_CURVE('',#320,#329,#224,.T.);
#405=EDGE_CURVE('',#329,#329,#85,.T.);
#406=EDGE_CURVE('',#316,#330,#225,.T.);
#407=EDGE_CURVE('',#330,#330,#86,.T.);
#408=EDGE_CURVE('',#306,#331,#226,.T.);
#409=EDGE_CURVE('',#331,#288,#227,.T.);
#410=EDGE_CURVE('',#332,#305,#228,.T.);
#411=EDGE_CURVE('',#332,#295,#229,.T.);
#412=EDGE_CURVE('',#331,#332,#230,.T.);
#413=ORIENTED_EDGE('',*,*,#333,.F.);
#414=ORIENTED_EDGE('',*,*,#334,.T.);
#415=ORIENTED_EDGE('',*,*,#335,.F.);
#416=ORIENTED_EDGE('',*,*,#336,.F.);
#417=ORIENTED_EDGE('',*,*,#337,.T.);
#418=ORIENTED_EDGE('',*,*,#338,.T.);
#419=ORIENTED_EDGE('',*,*,#339,.T.);
#420=ORIENTED_EDGE('',*,*,#335,.T.);
#421=ORIENTED_EDGE('',*,*,#340,.T.);
#422=ORIENTED_EDGE('',*,*,#341,.T.);
#423=ORIENTED_EDGE('',*,*,#342,.T.);
#424=ORIENTED_EDGE('',*,*,#343,.T.);
#425=ORIENTED_EDGE('',*,*,#344,.F.);
#426=ORIENTED_EDGE('',*,*,#345,.T.);
#427=ORIENTED_EDGE('',*,*,#346,.F.);
#428=ORIENTED_EDGE('',*,*,#340,.F.);
#429=ORIENTED_EDGE('',*,*,#347,.F.);
#430=ORIENTED_EDGE('',*,*,#348,.T.);
#431=ORIENTED_EDGE('',*,*,#349,.F.);
#432=ORIENTED_EDGE('',*,*,#350,.T.);
#433=ORIENTED_EDGE('',*,*,#338,.F.);
#434=ORIENTED_EDGE('',*,*,#351,.F.);
#435=ORIENTED_EDGE('',*,*,#352,.F.);
#436=ORIENTED_EDGE('',*,*,#345,.F.);
#437=ORIENTED_EDGE('',*,*,#353,.F.);
#438=ORIENTED_EDGE('',*,*,#348,.F.);
#439=ORIENTED_EDGE('',*,*,#333,.T.);
#440=ORIENTED_EDGE('',*,*,#354,.T.);
#441=ORIENTED_EDGE('',*,*,#355,.T.);
#442=ORIENTED_EDGE('',*,*,#356,.T.);
#443=ORIENTED_EDGE('',*,*,#357,.T.);
#444=ORIENTED_EDGE('',*,*,#358,.T.);
#445=ORIENTED_EDGE('',*,*,#359,.T.);
#446=ORIENTED_EDGE('',*,*,#360,.T.);
#447=ORIENTED_EDGE('',*,*,#361,.T.);
#448=ORIENTED_EDGE('',*,*,#362,.T.);
#449=ORIENTED_EDGE('',*,*,#363,.T.);
#450=ORIENTED_EDGE('',*,*,#364,.T.);
#451=ORIENTED_EDGE('',*,*,#346,.T.);
#452=ORIENTED_EDGE('',*,*,#352,.T.);
#453=ORIENTED_EDGE('',*,*,#347,.T.);
#454=ORIENTED_EDGE('',*,*,#351,.T.);
#455=ORIENTED_EDGE('',*,*,#337,.F.);
#456=ORIENTED_EDGE('',*,*,#334,.F.);
#457=ORIENTED_EDGE('',*,*,#356,.F.);
#458=ORIENTED_EDGE('',*,*,#365,.F.);
#459=ORIENTED_EDGE('',*,*,#366,.T.);
#460=ORIENTED_EDGE('',*,*,#367,.T.);
#461=ORIENTED_EDGE('',*,*,#341,.F.);
#462=ORIENTED_EDGE('',*,*,#368,.F.);
#463=ORIENTED_EDGE('',*,*,#369,.T.);
#464=ORIENTED_EDGE('',*,*,#364,.F.);
#465=ORIENTED_EDGE('',*,*,#369,.F.);
#466=ORIENTED_EDGE('',*,*,#368,.T.);
#467=ORIENTED_EDGE('',*,*,#370,.T.);
#468=ORIENTED_EDGE('',*,*,#371,.F.);
#469=ORIENTED_EDGE('',*,*,#372,.T.);
#470=ORIENTED_EDGE('',*,*,#357,.F.);
#471=ORIENTED_EDGE('',*,*,#372,.F.);
#472=ORIENTED_EDGE('',*,*,#371,.T.);
#473=ORIENTED_EDGE('',*,*,#373,.T.);
#474=ORIENTED_EDGE('',*,*,#374,.F.);
#475=ORIENTED_EDGE('',*,*,#375,.T.);
#476=ORIENTED_EDGE('',*,*,#363,.F.);
#477=ORIENTED_EDGE('',*,*,#375,.F.);
#478=ORIENTED_EDGE('',*,*,#374,.T.);
#479=ORIENTED_EDGE('',*,*,#376,.T.);
#480=ORIENTED_EDGE('',*,*,#377,.F.);
#481=ORIENTED_EDGE('',*,*,#378,.T.);
#482=ORIENTED_EDGE('',*,*,#358,.F.);
#483=ORIENTED_EDGE('',*,*,#378,.F.);
#484=ORIENTED_EDGE('',*,*,#377,.T.);
#485=ORIENTED_EDGE('',*,*,#379,.T.);
#486=ORIENTED_EDGE('',*,*,#380,.F.);
#487=ORIENTED_EDGE('',*,*,#381,.T.);
#488=ORIENTED_EDGE('',*,*,#362,.F.);
#489=ORIENTED_EDGE('',*,*,#381,.F.);
#490=ORIENTED_EDGE('',*,*,#380,.T.);
#491=ORIENTED_EDGE('',*,*,#382,.T.);
#492=ORIENTED_EDGE('',*,*,#383,.F.);
#493=ORIENTED_EDGE('',*,*,#384,.T.);
#494=ORIENTED_EDGE('',*,*,#359,.F.);
#495=ORIENTED_EDGE('',*,*,#384,.F.);
#496=ORIENTED_EDGE('',*,*,#383,.T.);
#497=ORIENTED_EDGE('',*,*,#385,.T.);
#498=ORIENTED_EDGE('',*,*,#386,.F.);
#499=ORIENTED_EDGE('',*,*,#387,.T.);
#500=ORIENTED_EDGE('',*,*,#361,.F.);
#501=ORIENTED_EDGE('',*,*,#387,.F.);
#502=ORIENTED_EDGE('',*,*,#386,.T.);
#503=ORIENTED_EDGE('',*,*,#388,.T.);
#504=ORIENTED_EDGE('',*,*,#389,.F.);
#505=ORIENTED_EDGE('',*,*,#390,.T.);
#506=ORIENTED_EDGE('',*,*,#360,.F.);
#507=ORIENTED_EDGE('',*,*,#390,.F.);
#508=ORIENTED_EDGE('',*,*,#389,.T.);
#509=ORIENTED_EDGE('',*,*,#391,.T.);
#510=ORIENTED_EDGE('',*,*,#370,.F.);
#511=ORIENTED_EDGE('',*,*,#392,.T.);
#512=ORIENTED_EDGE('',*,*,#393,.T.);
#513=ORIENTED_EDGE('',*,*,#392,.F.);
#514=ORIENTED_EDGE('',*,*,#385,.F.);
#515=ORIENTED_EDGE('',*,*,#394,.T.);
#516=ORIENTED_EDGE('',*,*,#395,.T.);
#517=ORIENTED_EDGE('',*,*,#394,.F.);
#518=ORIENTED_EDGE('',*,*,#376,.F.);
#519=ORIENTED_EDGE('',*,*,#396,.T.);
#520=ORIENTED_EDGE('',*,*,#397,.T.);
#521=ORIENTED_EDGE('',*,*,#396,.F.);
#522=ORIENTED_EDGE('',*,*,#379,.F.);
#523=ORIENTED_EDGE('',*,*,#398,.T.);
#524=ORIENTED_EDGE('',*,*,#399,.T.);
#525=ORIENTED_EDGE('',*,*,#398,.F.);
#526=ORIENTED_EDGE('',*,*,#373,.F.);
#527=ORIENTED_EDGE('',*,*,#400,.T.);
#528=ORIENTED_EDGE('',*,*,#401,.T.);
#529=ORIENTED_EDGE('',*,*,#400,.F.);
#530=ORIENTED_EDGE('',*,*,#391,.F.);
#531=ORIENTED_EDGE('',*,*,#402,.T.);
#532=ORIENTED_EDGE('',*,*,#403,.T.);
#533=ORIENTED_EDGE('',*,*,#402,.F.);
#534=ORIENTED_EDGE('',*,*,#388,.F.);
#535=ORIENTED_EDGE('',*,*,#404,.T.);
#536=ORIENTED_EDGE('',*,*,#405,.T.);
#537=ORIENTED_EDGE('',*,*,#404,.F.);
#538=ORIENTED_EDGE('',*,*,#382,.F.);
#539=ORIENTED_EDGE('',*,*,#406,.T.);
#540=ORIENTED_EDGE('',*,*,#407,.T.);
#541=ORIENTED_EDGE('',*,*,#406,.F.);
#542=ORIENTED_EDGE('',*,*,#408,.T.);
#543=ORIENTED_EDGE('',*,*,#409,.T.);
#544=ORIENTED_EDGE('',*,*,#342,.F.);
#545=ORIENTED_EDGE('',*,*,#367,.F.);
#546=ORIENTED_EDGE('',*,*,#410,.T.);
#547=ORIENTED_EDGE('',*,*,#365,.T.);
#548=ORIENTED_EDGE('',*,*,#355,.F.);
#549=ORIENTED_EDGE('',*,*,#411,.F.);
#550=ORIENTED_EDGE('',*,*,#344,.T.);
#551=ORIENTED_EDGE('',*,*,#343,.F.);
#552=ORIENTED_EDGE('',*,*,#409,.F.);
#553=ORIENTED_EDGE('',*,*,#412,.T.);
#554=ORIENTED_EDGE('',*,*,#411,.T.);
#555=ORIENTED_EDGE('',*,*,#354,.F.);
#556=ORIENTED_EDGE('',*,*,#336,.T.);
#557=ORIENTED_EDGE('',*,*,#339,.F.);
#558=ORIENTED_EDGE('',*,*,#350,.F.);
#559=ORIENTED_EDGE('',*,*,#349,.T.);
#560=ORIENTED_EDGE('',*,*,#353,.T.);
#561=ORIENTED_EDGE('',*,*,#412,.F.);
#562=ORIENTED_EDGE('',*,*,#408,.F.);
#563=ORIENTED_EDGE('',*,*,#366,.F.);
#564=ORIENTED_EDGE('',*,*,#410,.F.);
#565=ORIENTED_EDGE('',*,*,#407,.F.);
#566=ORIENTED_EDGE('',*,*,#405,.F.);
#567=ORIENTED_EDGE('',*,*,#403,.F.);
#568=ORIENTED_EDGE('',*,*,#401,.F.);
#569=ORIENTED_EDGE('',*,*,#399,.F.);
#570=ORIENTED_EDGE('',*,*,#397,.F.);
#571=ORIENTED_EDGE('',*,*,#395,.F.);
#572=ORIENTED_EDGE('',*,*,#393,.F.);
#573=PLANE('',#643);
#574=PLANE('',#644);
#575=PLANE('',#645);
#576=PLANE('',#646);
#577=PLANE('',#647);
#578=PLANE('',#648);
#579=PLANE('',#649);
#580=PLANE('',#658);
#581=PLANE('',#661);
#582=PLANE('',#665);
#583=PLANE('',#669);
#584=PLANE('',#673);
#585=PLANE('',#677);
#586=PLANE('',#681);
#587=PLANE('',#685);
#588=PLANE('',#689);
#589=PLANE('',#707);
#590=PLANE('',#708);
#591=PLANE('',#709);
#592=PLANE('',#710);
#593=ADVANCED_FACE('',(#87),#573,.T.);
#594=ADVANCED_FACE('',(#88),#574,.T.);
#595=ADVANCED_FACE('',(#89),#575,.T.);
#596=ADVANCED_FACE('',(#90),#576,.F.);
#597=ADVANCED_FACE('',(#91),#577,.F.);
#598=ADVANCED_FACE('',(#92),#578,.F.);
#599=ADVANCED_FACE('',(#93,#31,#32,#33,#34,#35,#36,#37,#38),#579,.T.);
#600=ADVANCED_FACE('',(#94),#580,.T.);
#601=ADVANCED_FACE('',(#95),#15,.T.);
#602=ADVANCED_FACE('',(#96,#39),#581,.T.);
#603=ADVANCED_FACE('',(#97),#16,.T.);
#604=ADVANCED_FACE('',(#98,#40),#582,.T.);
#605=ADVANCED_FACE('',(#99),#17,.T.);
#606=ADVANCED_FACE('',(#100,#41),#583,.T.);
#607=ADVANCED_FACE('',(#101),#18,.T.);
#608=ADVANCED_FACE('',(#102,#42),#584,.T.);
#609=ADVANCED_FACE('',(#103),#19,.T.);
#610=ADVANCED_FACE('',(#104,#43),#585,.T.);
#611=ADVANCED_FACE('',(#105),#20,.T.);
#612=ADVANCED_FACE('',(#106,#44),#586,.T.);
#613=ADVANCED_FACE('',(#107),#21,.T.);
#614=ADVANCED_FACE('',(#108,#45),#587,.T.);
#615=ADVANCED_FACE('',(#109),#22,.T.);
#616=ADVANCED_FACE('',(#110,#46),#588,.T.);
#617=ADVANCED_FACE('',(#111),#23,.F.);
#618=ADVANCED_FACE('',(#112),#24,.F.);
#619=ADVANCED_FACE('',(#113),#25,.F.);
#620=ADVANCED_FACE('',(#114),#26,.F.);
#621=ADVANCED_FACE('',(#115),#27,.F.);
#622=ADVANCED_FACE('',(#116),#28,.F.);
#623=ADVANCED_FACE('',(#117),#29,.F.);
#624=ADVANCED_FACE('',(#118),#30,.F.);
#625=ADVANCED_FACE('',(#119),#589,.T.);
#626=ADVANCED_FACE('',(#120),#590,.T.);
#627=ADVANCED_FACE('',(#121),#591,.T.);
#628=ADVANCED_FACE('',(#122,#47,#48,#49,#50,#51,#52,#53,#54),#592,.F.);
#629=CLOSED_SHELL('',(#593,#594,#595,#596,#597,#598,#599,#600,#601,#602,
#603,#604,#605,#606,#607,#608,#609,#610,#611,#612,#613,#614,#615,#616,#617,
#618,#619,#620,#621,#622,#623,#624,#625,#626,#627,#628));
#630=DERIVED_UNIT_ELEMENT(#632,1.);
#631=DERIVED_UNIT_ELEMENT(#1073,-3.);
#632=(
MASS_UNIT()
NAMED_UNIT(*)
SI_UNIT(.KILO.,.GRAM.)
);
#633=DERIVED_UNIT((#630,#631));
#634=MEASURE_REPRESENTATION_ITEM('density measure',
POSITIVE_RATIO_MEASURE(7850.),#633);
#635=PROPERTY_DEFINITION_REPRESENTATION(#640,#637);
#636=PROPERTY_DEFINITION_REPRESENTATION(#641,#638);
#637=REPRESENTATION('material name',(#639),#1070);
#638=REPRESENTATION('density',(#634),#1070);
#639=DESCRIPTIVE_REPRESENTATION_ITEM('\X2\92FC\X0\','\X2\92FC\X0\');
#640=PROPERTY_DEFINITION('material property','material name',#1080);
#641=PROPERTY_DEFINITION('material property','density of part',#1080);
#642=AXIS2_PLACEMENT_3D('',#897,#711,#712);
#643=AXIS2_PLACEMENT_3D('',#898,#713,#714);
#644=AXIS2_PLACEMENT_3D('',#907,#719,#720);
#645=AXIS2_PLACEMENT_3D('',#913,#724,#725);
#646=AXIS2_PLACEMENT_3D('',#922,#730,#731);
#647=AXIS2_PLACEMENT_3D('',#928,#735,#736);
#648=AXIS2_PLACEMENT_3D('',#938,#742,#743);
#649=AXIS2_PLACEMENT_3D('',#941,#746,#747);
#650=AXIS2_PLACEMENT_3D('',#948,#751,#752);
#651=AXIS2_PLACEMENT_3D('',#950,#753,#754);
#652=AXIS2_PLACEMENT_3D('',#952,#755,#756);
#653=AXIS2_PLACEMENT_3D('',#954,#757,#758);
#654=AXIS2_PLACEMENT_3D('',#956,#759,#760);
#655=AXIS2_PLACEMENT_3D('',#958,#761,#762);
#656=AXIS2_PLACEMENT_3D('',#960,#763,#764);
#657=AXIS2_PLACEMENT_3D('',#962,#765,#766);
#658=AXIS2_PLACEMENT_3D('',#963,#767,#768);
#659=AXIS2_PLACEMENT_3D('',#969,#772,#773);
#660=AXIS2_PLACEMENT_3D('',#971,#774,#775);
#661=AXIS2_PLACEMENT_3D('',#973,#777,#778);
#662=AXIS2_PLACEMENT_3D('',#975,#779,#780);
#663=AXIS2_PLACEMENT_3D('',#976,#781,#782);
#664=AXIS2_PLACEMENT_3D('',#978,#783,#784);
#665=AXIS2_PLACEMENT_3D('',#980,#786,#787);
#666=AXIS2_PLACEMENT_3D('',#982,#788,#789);
#667=AXIS2_PLACEMENT_3D('',#983,#790,#791);
#668=AXIS2_PLACEMENT_3D('',#985,#792,#793);
#669=AXIS2_PLACEMENT_3D('',#987,#795,#796);
#670=AXIS2_PLACEMENT_3D('',#989,#797,#798);
#671=AXIS2_PLACEMENT_3D('',#990,#799,#800);
#672=AXIS2_PLACEMENT_3D('',#992,#801,#802);
#673=AXIS2_PLACEMENT_3D('',#994,#804,#805);
#674=AXIS2_PLACEMENT_3D('',#996,#806,#807);
#675=AXIS2_PLACEMENT_3D('',#997,#808,#809);
#676=AXIS2_PLACEMENT_3D('',#999,#810,#811);
#677=AXIS2_PLACEMENT_3D('',#1001,#813,#814);
#678=AXIS2_PLACEMENT_3D('',#1003,#815,#816);
#679=AXIS2_PLACEMENT_3D('',#1004,#817,#818);
#680=AXIS2_PLACEMENT_3D('',#1006,#819,#820);
#681=AXIS2_PLACEMENT_3D('',#1008,#822,#823);
#682=AXIS2_PLACEMENT_3D('',#1010,#824,#825);
#683=AXIS2_PLACEMENT_3D('',#1011,#826,#827);
#684=AXIS2_PLACEMENT_3D('',#1013,#828,#829);
#685=AXIS2_PLACEMENT_3D('',#1015,#831,#832);
#686=AXIS2_PLACEMENT_3D('',#1017,#833,#834);
#687=AXIS2_PLACEMENT_3D('',#1018,#835,#836);
#688=AXIS2_PLACEMENT_3D('',#1020,#837,#838);
#689=AXIS2_PLACEMENT_3D('',#1022,#840,#841);
#690=AXIS2_PLACEMENT_3D('',#1024,#842,#843);
#691=AXIS2_PLACEMENT_3D('',#1025,#844,#845);
#692=AXIS2_PLACEMENT_3D('',#1028,#847,#848);
#693=AXIS2_PLACEMENT_3D('',#1029,#849,#850);
#694=AXIS2_PLACEMENT_3D('',#1032,#852,#853);
#695=AXIS2_PLACEMENT_3D('',#1033,#854,#855);
#696=AXIS2_PLACEMENT_3D('',#1036,#857,#858);
#697=AXIS2_PLACEMENT_3D('',#1037,#859,#860);
#698=AXIS2_PLACEMENT_3D('',#1040,#862,#863);
#699=AXIS2_PLACEMENT_3D('',#1041,#864,#865);
#700=AXIS2_PLACEMENT_3D('',#1044,#867,#868);
#701=AXIS2_PLACEMENT_3D('',#1045,#869,#870);
#702=AXIS2_PLACEMENT_3D('',#1048,#872,#873);
#703=AXIS2_PLACEMENT_3D('',#1049,#874,#875);
#704=AXIS2_PLACEMENT_3D('',#1052,#877,#878);
#705=AXIS2_PLACEMENT_3D('',#1053,#879,#880);
#706=AXIS2_PLACEMENT_3D('',#1056,#882,#883);
#707=AXIS2_PLACEMENT_3D('',#1057,#884,#885);
#708=AXIS2_PLACEMENT_3D('',#1061,#888,#889);
#709=AXIS2_PLACEMENT_3D('',#1065,#892,#893);
#710=AXIS2_PLACEMENT_3D('',#1067,#895,#896);
#711=DIRECTION('axis',(0.,0.,1.));
#712=DIRECTION('refdir',(1.,0.,0.));
#713=DIRECTION('center_axis',(0.,1.,0.));
#714=DIRECTION('ref_axis',(-1.,0.,0.));
#715=DIRECTION('',(1.,0.,0.));
#716=DIRECTION('',(0.,0.,1.));
#717=DIRECTION('',(-1.,0.,0.));
#718=DIRECTION('',(0.,0.,1.));
#719=DIRECTION('center_axis',(0.,0.,1.));
#720=DIRECTION('ref_axis',(1.,0.,0.));
#721=DIRECTION('',(0.,-1.,0.));
#722=DIRECTION('',(1.,0.,0.));
#723=DIRECTION('',(0.,1.,0.));
#724=DIRECTION('center_axis',(0.,0.,1.));
#725=DIRECTION('ref_axis',(1.,0.,0.));
#726=DIRECTION('',(-1.,-1.04491578009727E-16,0.));
#727=DIRECTION('',(-1.36642833800019E-16,-1.,0.));
#728=DIRECTION('',(1.,-1.56737368182375E-16,0.));
#729=DIRECTION('',(-1.36642833800019E-16,1.,0.));
#730=DIRECTION('center_axis',(1.04491578009727E-16,-1.,0.));
#731=DIRECTION('ref_axis',(-1.,-1.04491578009727E-16,0.));
#732=DIRECTION('',(0.,0.,1.));
#733=DIRECTION('',(-1.,-1.04491578009727E-16,0.));
#734=DIRECTION('',(0.,0.,-1.));
#735=DIRECTION('center_axis',(-1.04491578009727E-16,1.,0.));
#736=DIRECTION('ref_axis',(1.,1.04491578009727E-16,0.));
#737=DIRECTION('',(0.,0.,1.));
#738=DIRECTION('',(1.,1.04491578009727E-16,0.));
#739=DIRECTION('',(0.,0.,-1.));
#740=DIRECTION('',(0.,0.,1.));
#741=DIRECTION('',(0.,0.,1.));
#742=DIRECTION('center_axis',(0.,0.,-1.));
#743=DIRECTION('ref_axis',(-1.,0.,0.));
#744=DIRECTION('',(1.36642833800019E-16,1.,0.));
#745=DIRECTION('',(1.36642833800019E-16,-1.,0.));
#746=DIRECTION('center_axis',(0.,0.,1.));
#747=DIRECTION('ref_axis',(1.,0.,0.));
#748=DIRECTION('',(-1.36642833800019E-16,1.,0.));
#749=DIRECTION('',(-1.,0.,0.));
#750=DIRECTION('',(-1.36642833800019E-16,-1.,0.));
#751=DIRECTION('center_axis',(0.,0.,-1.));
#752=DIRECTION('ref_axis',(-1.,0.,0.));
#753=DIRECTION('center_axis',(0.,0.,-1.));
#754=DIRECTION('ref_axis',(-1.,0.,0.));
#755=DIRECTION('center_axis',(0.,0.,-1.));
#756=DIRECTION('ref_axis',(-1.,0.,0.));
#757=DIRECTION('center_axis',(0.,0.,-1.));
#758=DIRECTION('ref_axis',(-1.,0.,0.));
#759=DIRECTION('center_axis',(0.,0.,-1.));
#760=DIRECTION('ref_axis',(-1.,0.,0.));
#761=DIRECTION('center_axis',(0.,0.,-1.));
#762=DIRECTION('ref_axis',(-1.,0.,0.));
#763=DIRECTION('center_axis',(0.,0.,-1.));
#764=DIRECTION('ref_axis',(-1.,0.,0.));
#765=DIRECTION('center_axis',(0.,0.,-1.));
#766=DIRECTION('ref_axis',(-1.,0.,0.));
#767=DIRECTION('center_axis',(-1.,1.36642833800019E-16,0.));
#768=DIRECTION('ref_axis',(-1.36642833800019E-16,-1.,0.));
#769=DIRECTION('',(0.,0.,1.));
#770=DIRECTION('',(-1.36642833800019E-16,-1.,0.));
#771=DIRECTION('',(0.,0.,1.));
#772=DIRECTION('center_axis',(0.,0.,1.));
#773=DIRECTION('ref_axis',(-1.,0.,0.));
#774=DIRECTION('center_axis',(0.,0.,1.));
#775=DIRECTION('ref_axis',(-1.,0.,0.));
#776=DIRECTION('',(0.,0.,-1.));
#777=DIRECTION('center_axis',(0.,0.,1.));
#778=DIRECTION('ref_axis',(-1.,0.,0.));
#779=DIRECTION('center_axis',(0.,0.,-1.));
#780=DIRECTION('ref_axis',(-1.,0.,0.));
#781=DIRECTION('center_axis',(0.,0.,1.));
#782=DIRECTION('ref_axis',(-1.,0.,0.));
#783=DIRECTION('center_axis',(0.,0.,1.));
#784=DIRECTION('ref_axis',(-1.,0.,0.));
#785=DIRECTION('',(0.,0.,-1.));
#786=DIRECTION('center_axis',(0.,0.,1.));
#787=DIRECTION('ref_axis',(-1.,0.,0.));
#788=DIRECTION('center_axis',(0.,0.,-1.));
#789=DIRECTION('ref_axis',(-1.,0.,0.));
#790=DIRECTION('center_axis',(0.,0.,1.));
#791=DIRECTION('ref_axis',(-1.,0.,0.));
#792=DIRECTION('center_axis',(0.,0.,1.));
#793=DIRECTION('ref_axis',(-1.,0.,0.));
#794=DIRECTION('',(0.,0.,-1.));
#795=DIRECTION('center_axis',(0.,0.,1.));
#796=DIRECTION('ref_axis',(-1.,0.,0.));
#797=DIRECTION('center_axis',(0.,0.,-1.));
#798=DIRECTION('ref_axis',(-1.,0.,0.));
#799=DIRECTION('center_axis',(0.,0.,1.));
#800=DIRECTION('ref_axis',(-1.,0.,0.));
#801=DIRECTION('center_axis',(0.,0.,1.));
#802=DIRECTION('ref_axis',(-1.,0.,0.));
#803=DIRECTION('',(0.,0.,-1.));
#804=DIRECTION('center_axis',(0.,0.,1.));
#805=DIRECTION('ref_axis',(-1.,0.,0.));
#806=DIRECTION('center_axis',(0.,0.,-1.));
#807=DIRECTION('ref_axis',(-1.,0.,0.));
#808=DIRECTION('center_axis',(0.,0.,1.));
#809=DIRECTION('ref_axis',(-1.,0.,0.));
#810=DIRECTION('center_axis',(0.,0.,1.));
#811=DIRECTION('ref_axis',(-1.,0.,0.));
#812=DIRECTION('',(0.,0.,-1.));
#813=DIRECTION('center_axis',(0.,0.,1.));
#814=DIRECTION('ref_axis',(-1.,0.,0.));
#815=DIRECTION('center_axis',(0.,0.,-1.));
#816=DIRECTION('ref_axis',(-1.,0.,0.));
#817=DIRECTION('center_axis',(0.,0.,1.));
#818=DIRECTION('ref_axis',(-1.,0.,0.));
#819=DIRECTION('center_axis',(0.,0.,1.));
#820=DIRECTION('ref_axis',(-1.,0.,0.));
#821=DIRECTION('',(0.,0.,-1.));
#822=DIRECTION('center_axis',(0.,0.,1.));
#823=DIRECTION('ref_axis',(-1.,0.,0.));
#824=DIRECTION('center_axis',(0.,0.,-1.));
#825=DIRECTION('ref_axis',(-1.,0.,0.));
#826=DIRECTION('center_axis',(0.,0.,1.));
#827=DIRECTION('ref_axis',(-1.,0.,0.));
#828=DIRECTION('center_axis',(0.,0.,1.));
#829=DIRECTION('ref_axis',(-1.,0.,0.));
#830=DIRECTION('',(0.,0.,-1.));
#831=DIRECTION('center_axis',(0.,0.,1.));
#832=DIRECTION('ref_axis',(-1.,0.,0.));
#833=DIRECTION('center_axis',(0.,0.,-1.));
#834=DIRECTION('ref_axis',(-1.,0.,0.));
#835=DIRECTION('center_axis',(0.,0.,1.));
#836=DIRECTION('ref_axis',(-1.,0.,0.));
#837=DIRECTION('center_axis',(0.,0.,1.));
#838=DIRECTION('ref_axis',(-1.,0.,0.));
#839=DIRECTION('',(0.,0.,-1.));
#840=DIRECTION('center_axis',(0.,0.,1.));
#841=DIRECTION('ref_axis',(-1.,0.,0.));
#842=DIRECTION('center_axis',(0.,0.,-1.));
#843=DIRECTION('ref_axis',(-1.,0.,0.));
#844=DIRECTION('center_axis',(0.,0.,1.));
#845=DIRECTION('ref_axis',(1.,0.,0.));
#846=DIRECTION('',(0.,0.,-1.));
#847=DIRECTION('center_axis',(0.,0.,-1.));
#848=DIRECTION('ref_axis',(1.,0.,0.));
#849=DIRECTION('center_axis',(0.,0.,1.));
#850=DIRECTION('ref_axis',(1.,0.,0.));
#851=DIRECTION('',(0.,0.,-1.));
#852=DIRECTION('center_axis',(0.,0.,-1.));
#853=DIRECTION('ref_axis',(1.,0.,0.));
#854=DIRECTION('center_axis',(0.,0.,1.));
#855=DIRECTION('ref_axis',(1.,0.,0.));
#856=DIRECTION('',(0.,0.,-1.));
#857=DIRECTION('center_axis',(0.,0.,-1.));
#858=DIRECTION('ref_axis',(1.,0.,0.));
#859=DIRECTION('center_axis',(0.,0.,1.));
#860=DIRECTION('ref_axis',(1.,0.,0.));
#861=DIRECTION('',(0.,0.,-1.));
#862=DIRECTION('center_axis',(0.,0.,-1.));
#863=DIRECTION('ref_axis',(1.,0.,0.));
#864=DIRECTION('center_axis',(0.,0.,1.));
#865=DIRECTION('ref_axis',(1.,0.,0.));
#866=DIRECTION('',(0.,0.,-1.));
#867=DIRECTION('center_axis',(0.,0.,-1.));
#868=DIRECTION('ref_axis',(1.,0.,0.));
#869=DIRECTION('center_axis',(0.,0.,1.));
#870=DIRECTION('ref_axis',(1.,0.,0.));
#871=DIRECTION('',(0.,0.,-1.));
#872=DIRECTION('center_axis',(0.,0.,-1.));
#873=DIRECTION('ref_axis',(1.,0.,0.));
#874=DIRECTION('center_axis',(0.,0.,1.));
#875=DIRECTION('ref_axis',(1.,0.,0.));
#876=DIRECTION('',(0.,0.,-1.));
#877=DIRECTION('center_axis',(0.,0.,-1.));
#878=DIRECTION('ref_axis',(1.,0.,0.));
#879=DIRECTION('center_axis',(0.,0.,1.));
#880=DIRECTION('ref_axis',(1.,0.,0.));
#881=DIRECTION('',(0.,0.,-1.));
#882=DIRECTION('center_axis',(0.,0.,-1.));
#883=DIRECTION('ref_axis',(1.,0.,0.));
#884=DIRECTION('center_axis',(-1.56737368182375E-16,-1.,0.));
#885=DIRECTION('ref_axis',(1.,-1.56737368182375E-16,0.));
#886=DIRECTION('',(1.,-1.56737368182375E-16,0.));
#887=DIRECTION('',(0.,0.,1.));
#888=DIRECTION('center_axis',(0.,1.,0.));
#889=DIRECTION('ref_axis',(-1.,0.,0.));
#890=DIRECTION('',(-1.,0.,0.));
#891=DIRECTION('',(0.,0.,1.));
#892=DIRECTION('center_axis',(1.,1.36642833800019E-16,0.));
#893=DIRECTION('ref_axis',(-1.36642833800019E-16,1.,0.));
#894=DIRECTION('',(-1.36642833800019E-16,1.,0.));
#895=DIRECTION('center_axis',(0.,0.,1.));
#896=DIRECTION('ref_axis',(1.,0.,0.));
#897=CARTESIAN_POINT('',(0.,0.,0.));
#898=CARTESIAN_POINT('Origin',(85.0000012665987,-57.4299999999523,5.));
#899=CARTESIAN_POINT('',(-85.0000025331974,-57.4299999999523,5.));
#900=CARTESIAN_POINT('',(85.0000012665987,-57.4299999999523,5.));
#901=CARTESIAN_POINT('',(42.5000006332994,-57.4299999999523,5.));
#902=CARTESIAN_POINT('',(-85.0000025331974,-57.4299999999523,6.));
#903=CARTESIAN_POINT('',(-85.0000025331974,-57.4299999999523,5.));
#904=CARTESIAN_POINT('',(85.0000012665987,-57.4299999999523,6.));
#905=CARTESIAN_POINT('',(85.0000012665987,-57.4299999999523,6.));
#906=CARTESIAN_POINT('',(85.0000012665987,-57.4299999999523,5.));
#907=CARTESIAN_POINT('Origin',(-6.33299350738525E-7,-58.9299999999523,6.));
#908=CARTESIAN_POINT('',(-85.0000025331974,-60.4299999999523,6.));
#909=CARTESIAN_POINT('',(-85.0000025331974,-57.4299999999523,6.));
#910=CARTESIAN_POINT('',(85.0000012665987,-60.4299999999523,6.));
#911=CARTESIAN_POINT('',(-85.0000025331974,-60.4299999999523,6.));
#912=CARTESIAN_POINT('',(85.0000012665987,-60.4299999999523,6.));
#913=CARTESIAN_POINT('Origin',(0.,0.,6.));
#914=CARTESIAN_POINT('',(85.0000012665987,-62.9799999999522,6.));
#915=CARTESIAN_POINT('',(-85.,-62.9799999999523,6.));
#916=CARTESIAN_POINT('',(42.5000006332994,-62.9799999999523,6.));
#917=CARTESIAN_POINT('',(-85.,-65.,6.));
#918=CARTESIAN_POINT('',(-85.,65.,6.));
#919=CARTESIAN_POINT('',(85.,-65.,6.));
#920=CARTESIAN_POINT('',(-85.,-65.,6.));
#921=CARTESIAN_POINT('',(85.,-65.,6.));
#922=CARTESIAN_POINT('Origin',(85.0000012665987,-62.9799999999522,5.));
#923=CARTESIAN_POINT('',(85.0000012665987,-62.9799999999522,2.));
#924=CARTESIAN_POINT('',(85.,-62.9799999999523,2.5));
#925=CARTESIAN_POINT('',(-85.,-62.9799999999523,2.));
#926=CARTESIAN_POINT('',(-85.,-62.9799999999523,2.));
#927=CARTESIAN_POINT('',(-85.,-62.9799999999523,2.5));
#928=CARTESIAN_POINT('Origin',(-85.0000025331974,-60.4299999999523,5.));
#929=CARTESIAN_POINT('',(-85.0000025331974,-60.4299999999523,2.));
#930=CARTESIAN_POINT('',(-85.0000025331974,-60.4299999999523,5.));
#931=CARTESIAN_POINT('',(-85.,-60.4299999999523,2.5));
#932=CARTESIAN_POINT('',(84.9999987334013,-60.4299999999522,2.));
#933=CARTESIAN_POINT('',(-85.0000025331974,-60.4299999999523,2.));
#934=CARTESIAN_POINT('',(84.9999987334013,-60.4299999999522,5.));
#935=CARTESIAN_POINT('',(85.,-60.4299999999522,2.5));
#936=CARTESIAN_POINT('',(85.0000012665987,-60.4299999999523,5.));
#937=CARTESIAN_POINT('',(-85.0000025331974,-60.4299999999523,5.));
#938=CARTESIAN_POINT('Origin',(-6.89989805735536E-6,-61.7049937333535,2.));
#939=CARTESIAN_POINT('',(-85.,1.64750313332324,2.));
#940=CARTESIAN_POINT('',(85.,-63.3524968666768,2.));
#941=CARTESIAN_POINT('Origin',(0.,0.,5.));
#942=CARTESIAN_POINT('',(85.,65.,5.));
#943=CARTESIAN_POINT('',(85.,-65.,5.));
#944=CARTESIAN_POINT('',(-85.,65.,5.));
#945=CARTESIAN_POINT('',(85.,65.,5.));
#946=CARTESIAN_POINT('',(-85.,65.,5.));
#947=CARTESIAN_POINT('',(24.24,-45.4299999999523,5.));
#948=CARTESIAN_POINT('Origin',(21.24,-45.4299999999523,5.));
#949=CARTESIAN_POINT('',(39.98,5.37000000004776,5.));
#950=CARTESIAN_POINT('Origin',(36.98,5.37000000004776,5.));
#951=CARTESIAN_POINT('',(-65.,45.,5.));
#952=CARTESIAN_POINT('Origin',(-70.,45.,5.));
#953=CARTESIAN_POINT('',(-65.0000010430813,-45.0000006705523,5.));
#954=CARTESIAN_POINT('Origin',(-70.0000010430813,-45.0000006705523,5.));
#955=CARTESIAN_POINT('',(75.0000010430813,45.0000006705523,5.));
#956=CARTESIAN_POINT('Origin',(70.0000010430813,45.0000006705523,5.));
#957=CARTESIAN_POINT('',(15.0000010430813,5.00000067055225,5.));
#958=CARTESIAN_POINT('Origin',(10.0000010430813,5.00000067055225,5.));
#959=CARTESIAN_POINT('',(67.42,5.37000000004776,5.));
#960=CARTESIAN_POINT('Origin',(64.42,5.37000000004776,5.));
#961=CARTESIAN_POINT('',(72.5,-46.6999999999523,5.));
#962=CARTESIAN_POINT('Origin',(69.5,-46.6999999999523,5.));
#963=CARTESIAN_POINT('Origin',(-85.,65.,0.));
#964=CARTESIAN_POINT('',(-85.,65.,0.));
#965=CARTESIAN_POINT('',(-85.,65.,0.));
#966=CARTESIAN_POINT('',(-85.,-65.,0.));
#967=CARTESIAN_POINT('',(-85.,65.,0.));
#968=CARTESIAN_POINT('',(-85.,-65.,0.));
#969=CARTESIAN_POINT('Origin',(69.5,-46.6999999999523,5.));
#970=CARTESIAN_POINT('',(72.5,-46.6999999999523,7.));
#971=CARTESIAN_POINT('Origin',(69.5,-46.6999999999523,7.));
#972=CARTESIAN_POINT('',(72.5,-46.6999999999523,5.));
#973=CARTESIAN_POINT('Origin',(69.5,-46.6999999999523,7.));
#974=CARTESIAN_POINT('',(67.9,-46.6999999999523,7.));
#975=CARTESIAN_POINT('Origin',(69.5,-46.6999999999523,7.));
#976=CARTESIAN_POINT('Origin',(21.24,-45.4299999999523,5.));
#977=CARTESIAN_POINT('',(24.24,-45.4299999999523,7.));
#978=CARTESIAN_POINT('Origin',(21.24,-45.4299999999523,7.));
#979=CARTESIAN_POINT('',(24.24,-45.4299999999523,5.));
#980=CARTESIAN_POINT('Origin',(21.24,-45.4299999999523,7.));
#981=CARTESIAN_POINT('',(19.64,-45.4299999999523,7.));
#982=CARTESIAN_POINT('Origin',(21.24,-45.4299999999523,7.));
#983=CARTESIAN_POINT('Origin',(64.42,5.37000000004776,5.));
#984=CARTESIAN_POINT('',(67.42,5.37000000004776,7.));
#985=CARTESIAN_POINT('Origin',(64.42,5.37000000004776,7.));
#986=CARTESIAN_POINT('',(67.42,5.37000000004776,5.));
#987=CARTESIAN_POINT('Origin',(64.42,5.37000000004776,7.));
#988=CARTESIAN_POINT('',(62.82,5.37000000004776,7.));
#989=CARTESIAN_POINT('Origin',(64.42,5.37000000004776,7.));
#990=CARTESIAN_POINT('Origin',(36.98,5.37000000004776,5.));
#991=CARTESIAN_POINT('',(39.98,5.37000000004776,7.));
#992=CARTESIAN_POINT('Origin',(36.98,5.37000000004776,7.));
#993=CARTESIAN_POINT('',(39.98,5.37000000004776,5.));
#994=CARTESIAN_POINT('Origin',(36.98,5.37000000004776,7.));
#995=CARTESIAN_POINT('',(35.38,5.37000000004776,7.));
#996=CARTESIAN_POINT('Origin',(36.98,5.37000000004776,7.));
#997=CARTESIAN_POINT('Origin',(10.0000010430813,5.00000067055225,5.));
#998=CARTESIAN_POINT('',(15.0000010430813,5.00000067055225,20.));
#999=CARTESIAN_POINT('Origin',(10.0000010430813,5.00000067055225,20.));
#1000=CARTESIAN_POINT('',(15.0000010430813,5.00000067055225,5.));
#1001=CARTESIAN_POINT('Origin',(10.0000010430813,5.00000067055225,20.));
#1002=CARTESIAN_POINT('',(8.40000104308128,5.00000067055225,20.));
#1003=CARTESIAN_POINT('Origin',(10.0000010430813,5.00000067055225,20.));
#1004=CARTESIAN_POINT('Origin',(-70.,45.,5.));
#1005=CARTESIAN_POINT('',(-65.,45.,20.));
#1006=CARTESIAN_POINT('Origin',(-70.,45.,20.));
#1007=CARTESIAN_POINT('',(-65.,45.,5.));
#1008=CARTESIAN_POINT('Origin',(-70.,45.,20.));
#1009=CARTESIAN_POINT('',(-71.6,45.,20.));
#1010=CARTESIAN_POINT('Origin',(-70.,45.,20.));
#1011=CARTESIAN_POINT('Origin',(70.0000010430813,45.0000006705523,5.));
#1012=CARTESIAN_POINT('',(75.0000010430813,45.0000006705523,20.));
#1013=CARTESIAN_POINT('Origin',(70.0000010430813,45.0000006705523,20.));
#1014=CARTESIAN_POINT('',(75.0000010430813,45.0000006705523,5.));
#1015=CARTESIAN_POINT('Origin',(70.0000010430813,45.0000006705523,20.));
#1016=CARTESIAN_POINT('',(68.4000010430813,45.0000006705523,20.));
#1017=CARTESIAN_POINT('Origin',(70.0000010430813,45.0000006705523,20.));
#1018=CARTESIAN_POINT('Origin',(-70.0000010430813,-45.0000006705523,5.));
#1019=CARTESIAN_POINT('',(-65.0000010430813,-45.0000006705523,20.));
#1020=CARTESIAN_POINT('Origin',(-70.0000010430813,-45.0000006705523,20.));
#1021=CARTESIAN_POINT('',(-65.0000010430813,-45.0000006705523,5.));
#1022=CARTESIAN_POINT('Origin',(-70.0000010430813,-45.0000006705523,20.));
#1023=CARTESIAN_POINT('',(-71.6000010430813,-45.0000006705523,20.));
#1024=CARTESIAN_POINT('Origin',(-70.0000010430813,-45.0000006705523,20.));
#1025=CARTESIAN_POINT('Origin',(69.5,-46.6999999999523,0.));
#1026=CARTESIAN_POINT('',(67.9,-46.6999999999523,0.));
#1027=CARTESIAN_POINT('',(67.9,-46.6999999999523,0.));
#1028=CARTESIAN_POINT('Origin',(69.5,-46.6999999999523,0.));
#1029=CARTESIAN_POINT('Origin',(-70.,45.,0.));
#1030=CARTESIAN_POINT('',(-71.6,45.,0.));
#1031=CARTESIAN_POINT('',(-71.6,45.,0.));
#1032=CARTESIAN_POINT('Origin',(-70.,45.,0.));
#1033=CARTESIAN_POINT('Origin',(64.42,5.37000000004776,0.));
#1034=CARTESIAN_POINT('',(62.82,5.37000000004776,0.));
#1035=CARTESIAN_POINT('',(62.82,5.37000000004776,0.));
#1036=CARTESIAN_POINT('Origin',(64.42,5.37000000004776,0.));
#1037=CARTESIAN_POINT('Origin',(36.98,5.37000000004776,0.));
#1038=CARTESIAN_POINT('',(35.38,5.37000000004776,0.));
#1039=CARTESIAN_POINT('',(35.38,5.37000000004776,0.));
#1040=CARTESIAN_POINT('Origin',(36.98,5.37000000004776,0.));
#1041=CARTESIAN_POINT('Origin',(21.24,-45.4299999999523,0.));
#1042=CARTESIAN_POINT('',(19.64,-45.4299999999523,0.));
#1043=CARTESIAN_POINT('',(19.64,-45.4299999999523,0.));
#1044=CARTESIAN_POINT('Origin',(21.24,-45.4299999999523,0.));
#1045=CARTESIAN_POINT('Origin',(-70.0000010430813,-45.0000006705523,0.));
#1046=CARTESIAN_POINT('',(-71.6000010430813,-45.0000006705523,0.));
#1047=CARTESIAN_POINT('',(-71.6000010430813,-45.0000006705523,0.));
#1048=CARTESIAN_POINT('Origin',(-70.0000010430813,-45.0000006705523,0.));
#1049=CARTESIAN_POINT('Origin',(70.0000010430813,45.0000006705523,0.));
#1050=CARTESIAN_POINT('',(68.4000010430813,45.0000006705523,0.));
#1051=CARTESIAN_POINT('',(68.4000010430813,45.0000006705523,0.));
#1052=CARTESIAN_POINT('Origin',(70.0000010430813,45.0000006705523,0.));
#1053=CARTESIAN_POINT('Origin',(10.0000010430813,5.00000067055225,0.));
#1054=CARTESIAN_POINT('',(8.40000104308128,5.00000067055225,0.));
#1055=CARTESIAN_POINT('',(8.40000104308128,5.00000067055225,0.));
#1056=CARTESIAN_POINT('Origin',(10.0000010430813,5.00000067055225,0.));
#1057=CARTESIAN_POINT('Origin',(-85.,-65.,0.));
#1058=CARTESIAN_POINT('',(85.,-65.,0.));
#1059=CARTESIAN_POINT('',(-85.,-65.,0.));
#1060=CARTESIAN_POINT('',(85.,-65.,0.));
#1061=CARTESIAN_POINT('Origin',(85.,65.,0.));
#1062=CARTESIAN_POINT('',(85.,65.,0.));
#1063=CARTESIAN_POINT('',(85.,65.,0.));
#1064=CARTESIAN_POINT('',(85.,65.,0.));
#1065=CARTESIAN_POINT('Origin',(85.,-65.,0.));
#1066=CARTESIAN_POINT('',(85.,-65.,0.));
#1067=CARTESIAN_POINT('Origin',(0.,0.,0.));
#1068=UNCERTAINTY_MEASURE_WITH_UNIT(LENGTH_MEASURE(0.01),#1072,
'DISTANCE_ACCURACY_VALUE',
'Maximum model space distance between geometric entities at asserted c
onnectivities');
#1069=UNCERTAINTY_MEASURE_WITH_UNIT(LENGTH_MEASURE(0.01),#1072,
'DISTANCE_ACCURACY_VALUE',
'Maximum model space distance between geometric entities at asserted c
onnectivities');
#1070=(
GEOMETRIC_REPRESENTATION_CONTEXT(3)
GLOBAL_UNCERTAINTY_ASSIGNED_CONTEXT((#1068))
GLOBAL_UNIT_ASSIGNED_CONTEXT((#1072,#1074,#1075))
REPRESENTATION_CONTEXT('','3D')
);
#1071=(
GEOMETRIC_REPRESENTATION_CONTEXT(3)
GLOBAL_UNCERTAINTY_ASSIGNED_CONTEXT((#1069))
GLOBAL_UNIT_ASSIGNED_CONTEXT((#1072,#1074,#1075))
REPRESENTATION_CONTEXT('','3D')
);
#1072=(
LENGTH_UNIT()
NAMED_UNIT(*)
SI_UNIT(.MILLI.,.METRE.)
);
#1073=(
LENGTH_UNIT()
NAMED_UNIT(*)
SI_UNIT($,.METRE.)
);
#1074=(
NAMED_UNIT(*)
PLANE_ANGLE_UNIT()
SI_UNIT($,.RADIAN.)
);
#1075=(
NAMED_UNIT(*)
SI_UNIT($,.STERADIAN.)
SOLID_ANGLE_UNIT()
);
#1076=SHAPE_DEFINITION_REPRESENTATION(#1077,#1078);
#1077=PRODUCT_DEFINITION_SHAPE('',$,#1080);
#1078=SHAPE_REPRESENTATION('',(#642),#1070);
#1079=PRODUCT_DEFINITION_CONTEXT('part definition',#1084,'design');
#1080=PRODUCT_DEFINITION('\X2\96FB5B508CA0837753F05EA7\X0\',
'\X2\96FB5B508CA0837753F05EA7\X0\ v1',#1081,#1079);
#1081=PRODUCT_DEFINITION_FORMATION('',$,#1086);
#1082=PRODUCT_RELATED_PRODUCT_CATEGORY('\X2\96FB5B508CA0837753F05EA7\X0\ 
v1','\X2\96FB5B508CA0837753F05EA7\X0\ v1',(#1086));
#1083=APPLICATION_PROTOCOL_DEFINITION('international standard',
'automotive_design',2009,#1084);
#1084=APPLICATION_CONTEXT(
'Core Data for Automotive Mechanical Design Process');
#1085=PRODUCT_CONTEXT('part definition',#1084,'mechanical');
#1086=PRODUCT('\X2\96FB5B508CA0837753F05EA7\X0\',
'\X2\96FB5B508CA0837753F05EA7\X0\ v1',$,(#1085));
#1087=PRESENTATION_STYLE_ASSIGNMENT((#1088));
#1088=SURFACE_STYLE_USAGE(.BOTH.,#1089);
#1089=SURFACE_SIDE_STYLE('',(#1090));
#1090=SURFACE_STYLE_FILL_AREA(#1091);
#1091=FILL_AREA_STYLE('\X2\92FC\X0\ - \X2\30B530C630F3\X0\',(#1092));
#1092=FILL_AREA_STYLE_COLOUR('\X2\92FC\X0\ - \X2\30B530C630F3\X0\',#1093);
#1093=COLOUR_RGB('\X2\92FC\X0\ - \X2\30B530C630F3\X0\',0.627450980392157,
0.627450980392157,0.627450980392157);
ENDSEC;
END-ISO-10303-21;
